<svg width="500" height="500" viewBox="0 0 500 500" fill="none" xmlns="http://www.w3.org/2000/svg">
<g clip-path="url(#clip0_608_6)">
<rect width="500" height="500" rx="70" fill="url(#paint0_linear_608_6)"/>
<rect x="-31.5" y="-24.5" width="564" height="550" fill="#B51D52" stroke="black"/>
<g filter="url(#filter1_n_608_6)">
<rect x="54" y="93.8359" width="340.813" height="347" rx="47" transform="rotate(-8 54 93.8359)" fill="url(#paint1_linear_608_6)"/>
<rect x="117.574" y="166.678" width="240" height="25" rx="12.5" transform="rotate(-8 117.574 166.678)" fill="url(#paint2_linear_608_6)"/>
<rect x="124.672" y="217.182" width="240" height="25" rx="12.5" transform="rotate(-8 124.672 217.182)" fill="url(#paint3_linear_608_6)"/>
<rect x="131.771" y="267.686" width="240" height="25" rx="12.5" transform="rotate(-8 131.771 267.686)" fill="url(#paint4_linear_608_6)"/>
</g>
<g filter="url(#filter2_dn_608_6)">
<rect x="65" y="100.525" width="347" height="347" rx="47" transform="rotate(-4 65 100.525)" fill="url(#paint5_linear_608_6)"/>
<rect x="123.68" y="177.629" width="240" height="25" rx="12.5" transform="rotate(-4 123.68 177.629)" fill="white"/>
<rect x="127.238" y="228.504" width="240" height="25" rx="12.5" transform="rotate(-4 127.238 228.504)" fill="white"/>
<rect x="130.795" y="279.381" width="240" height="25" rx="12.5" transform="rotate(-4 130.795 279.381)" fill="white"/>
</g>
<g filter="url(#filter3_n_608_6)">
<rect x="77" y="108" width="347" height="375" rx="47" fill="url(#paint6_linear_608_6)"/>
<rect opacity="0.45" x="130" y="189" width="240" height="25" rx="12.5" fill="white"/>
<rect opacity="0.45" x="130" y="240" width="240" height="25" rx="12.5" fill="white"/>
<rect opacity="0.45" x="130" y="291" width="240" height="25" rx="12.5" fill="white"/>
</g>
<g filter="url(#filter4_d_608_6)">
<mask id="path-15-inside-1_608_6" fill="white">
<path d="M671 415C671 441.959 671 455.438 668.417 466.58C659.799 503.764 630.764 532.799 593.58 541.417C582.438 544 568.959 544 542 544H-42C-68.9585 544 -82.4378 544 -93.5801 541.417C-130.764 532.799 -159.799 503.764 -168.417 466.58C-171 455.438 -171 441.959 -171 415C-171 388.041 -171 374.562 -168.417 363.42C-159.799 326.236 -130.764 297.201 -93.5801 288.583C-82.4378 286 -68.9585 286 -42 286H70.5C88.4493 286 103 300.551 103 318.5C103 336.449 117.551 351 135.5 351H364.5C382.449 351 397 336.449 397 318.5C397 300.551 411.551 286 429.5 286H542C568.959 286 582.438 286 593.58 288.583C630.764 297.201 659.799 326.236 668.417 363.42C671 374.562 671 388.041 671 415Z"/>
</mask>
<path d="M671 415C671 441.959 671 455.438 668.417 466.58C659.799 503.764 630.764 532.799 593.58 541.417C582.438 544 568.959 544 542 544H-42C-68.9585 544 -82.4378 544 -93.5801 541.417C-130.764 532.799 -159.799 503.764 -168.417 466.58C-171 455.438 -171 441.959 -171 415C-171 388.041 -171 374.562 -168.417 363.42C-159.799 326.236 -130.764 297.201 -93.5801 288.583C-82.4378 286 -68.9585 286 -42 286H70.5C88.4493 286 103 300.551 103 318.5C103 336.449 117.551 351 135.5 351H364.5C382.449 351 397 336.449 397 318.5C397 300.551 411.551 286 429.5 286H542C568.959 286 582.438 286 593.58 288.583C630.764 297.201 659.799 326.236 668.417 363.42C671 374.562 671 388.041 671 415Z" fill="#D9D9D9" fill-opacity="0.2" shape-rendering="crispEdges"/>
<path d="M593.58 288.583L594.935 282.738L593.58 288.583ZM668.417 363.42L662.572 364.775L668.417 363.42ZM-93.5801 541.417L-94.9349 547.262L-93.5801 541.417ZM593.58 541.417L592.225 535.572L593.58 541.417ZM668.417 466.58L662.572 465.225L668.417 466.58ZM542 544V538H-42V544V550H542V544ZM-42 286V292H70.5V286V280H-42V286ZM135.5 351V357H364.5V351V345H135.5V351ZM429.5 286V292H542V286V280H429.5V286ZM542 286V292C569.293 292 581.92 292.039 592.225 294.428L593.58 288.583L594.935 282.738C582.956 279.961 568.624 280 542 280V286ZM671 415H677C677 388.376 677.039 374.044 674.262 362.065L668.417 363.42L662.572 364.775C664.961 375.08 665 387.707 665 415H671ZM593.58 288.583L592.225 294.428C627.178 302.529 654.471 329.822 662.572 364.775L668.417 363.42L674.262 362.065C665.126 322.65 634.35 291.874 594.935 282.738L593.58 288.583ZM397 318.5H403C403 303.864 414.864 292 429.5 292V286V280C408.237 280 391 297.237 391 318.5H397ZM364.5 351V357C385.763 357 403 339.763 403 318.5H397H391C391 333.136 379.136 345 364.5 345V351ZM103 318.5H97C97 339.763 114.237 357 135.5 357V351V345C120.864 345 109 333.136 109 318.5H103ZM70.5 286V292C85.1356 292 97 303.864 97 318.5H103H109C109 297.237 91.763 280 70.5 280V286ZM-171 415H-165C-165 387.707 -164.961 375.08 -162.572 364.775L-168.417 363.42L-174.262 362.065C-177.039 374.044 -177 388.376 -177 415H-171ZM-42 286V280C-68.6238 280 -82.9555 279.961 -94.9349 282.738L-93.5801 288.583L-92.2253 294.428C-81.92 292.039 -69.2932 292 -42 292V286ZM-168.417 363.42L-162.572 364.775C-154.471 329.822 -127.178 302.529 -92.2253 294.428L-93.5801 288.583L-94.9349 282.738C-134.35 291.874 -165.126 322.65 -174.262 362.065L-168.417 363.42ZM-42 544V538C-69.2932 538 -81.92 537.961 -92.2253 535.572L-93.5801 541.417L-94.9349 547.262C-82.9555 550.039 -68.6238 550 -42 550V544ZM-171 415H-177C-177 441.624 -177.039 455.956 -174.262 467.935L-168.417 466.58L-162.572 465.225C-164.961 454.92 -165 442.293 -165 415H-171ZM-93.5801 541.417L-92.2253 535.572C-127.178 527.471 -154.471 500.178 -162.572 465.225L-168.417 466.58L-174.262 467.935C-165.126 507.35 -134.35 538.126 -94.9349 547.262L-93.5801 541.417ZM542 544V550C568.624 550 582.956 550.039 594.935 547.262L593.58 541.417L592.225 535.572C581.92 537.961 569.293 538 542 538V544ZM671 415H665C665 442.293 664.961 454.92 662.572 465.225L668.417 466.58L674.262 467.935C677.039 455.956 677 441.624 677 415H671ZM593.58 541.417L594.935 547.262C634.35 538.126 665.126 507.35 674.262 467.935L668.417 466.58L662.572 465.225C654.471 500.178 627.178 527.471 592.225 535.572L593.58 541.417Z" fill="url(#paint7_linear_608_6)" fill-opacity="0.3" mask="url(#path-15-inside-1_608_6)"/>
</g>
</g>
<defs>
<filter id="filter1_n_608_6" x="61.6074" y="54.0107" width="370.574" height="375.841" filterUnits="userSpaceOnUse" color-interpolation-filters="sRGB">
<feFlood flood-opacity="0" result="BackgroundImageFix"/>
<feBlend mode="normal" in="SourceGraphic" in2="BackgroundImageFix" result="shape"/>
<feTurbulence type="fractalNoise" baseFrequency="2 2" stitchTiles="stitch" numOctaves="3" result="noise" seed="4900" />
<feColorMatrix in="noise" type="luminanceToAlpha" result="alphaNoise" />
<feComponentTransfer in="alphaNoise" result="coloredNoise1">
<feFuncA type="discrete" tableValues="0 0 0 0 0 0 0 1 1 1 1 1 1 1 1 1 1 1 1 1 1 1 1 1 1 1 1 1 1 1 1 1 1 1 1 1 1 1 1 1 1 1 1 0 0 0 0 0 0 0 0 0 0 0 0 0 0 0 0 0 0 0 0 0 0 0 0 0 0 0 0 0 0 0 0 0 0 0 0 0 0 0 0 0 0 0 0 0 0 0 0 0 0 0 0 0 0 0 0 0 "/>
</feComponentTransfer>
<feComposite operator="in" in2="shape" in="coloredNoise1" result="noise1Clipped" />
<feFlood flood-color="rgba(0, 0, 0, 0.25)" result="color1Flood" />
<feComposite operator="in" in2="noise1Clipped" in="color1Flood" result="color1" />
<feMerge result="effect1_noise_608_6">
<feMergeNode in="shape" />
<feMergeNode in="color1" />
</feMerge>
</filter>
<filter id="filter2_dn_608_6" x="65.4023" y="72.7227" width="369.555" height="369.555" filterUnits="userSpaceOnUse" color-interpolation-filters="sRGB">
<feFlood flood-opacity="0" result="BackgroundImageFix"/>
<feColorMatrix in="SourceAlpha" type="matrix" values="0 0 0 0 0 0 0 0 0 0 0 0 0 0 0 0 0 0 127 0" result="hardAlpha"/>
<feOffset dy="-4"/>
<feGaussianBlur stdDeviation="2"/>
<feComposite in2="hardAlpha" operator="out"/>
<feColorMatrix type="matrix" values="0 0 0 0 0 0 0 0 0 0 0 0 0 0 0 0 0 0 0.25 0"/>
<feBlend mode="normal" in2="BackgroundImageFix" result="effect1_dropShadow_608_6"/>
<feBlend mode="normal" in="SourceGraphic" in2="BackgroundImageFix" result="shape"/>
<feTurbulence type="fractalNoise" baseFrequency="2 2" stitchTiles="stitch" numOctaves="3" result="noise" seed="4900" />
<feColorMatrix in="noise" type="luminanceToAlpha" result="alphaNoise" />
<feComponentTransfer in="alphaNoise" result="coloredNoise1">
<feFuncA type="discrete" tableValues="0 0 0 0 0 0 0 1 1 1 1 1 1 1 1 1 1 1 1 1 1 1 1 1 1 1 1 1 1 1 1 1 1 1 1 1 1 1 1 1 1 1 1 0 0 0 0 0 0 0 0 0 0 0 0 0 0 0 0 0 0 0 0 0 0 0 0 0 0 0 0 0 0 0 0 0 0 0 0 0 0 0 0 0 0 0 0 0 0 0 0 0 0 0 0 0 0 0 0 0 "/>
</feComponentTransfer>
<feComposite operator="in" in2="shape" in="coloredNoise1" result="noise1Clipped" />
<feFlood flood-color="rgba(0, 0, 0, 0.25)" result="color1Flood" />
<feComposite operator="in" in2="noise1Clipped" in="color1Flood" result="color1" />
<feMerge result="effect2_noise_608_6">
<feMergeNode in="shape" />
<feMergeNode in="color1" />
</feMerge>
<feBlend mode="normal" in="effect2_noise_608_6" in2="effect1_dropShadow_608_6" result="effect2_noise_608_6"/>
</filter>
<filter id="filter3_n_608_6" x="77" y="108" width="347" height="375" filterUnits="userSpaceOnUse" color-interpolation-filters="sRGB">
<feFlood flood-opacity="0" result="BackgroundImageFix"/>
<feBlend mode="normal" in="SourceGraphic" in2="BackgroundImageFix" result="shape"/>
<feTurbulence type="fractalNoise" baseFrequency="2 2" stitchTiles="stitch" numOctaves="3" result="noise" seed="4900" />
<feColorMatrix in="noise" type="luminanceToAlpha" result="alphaNoise" />
<feComponentTransfer in="alphaNoise" result="coloredNoise1">
<feFuncA type="discrete" tableValues="0 0 0 0 0 0 0 1 1 1 1 1 1 1 1 1 1 1 1 1 1 1 1 1 1 1 1 1 1 1 1 1 1 1 1 1 1 1 1 1 1 1 1 0 0 0 0 0 0 0 0 0 0 0 0 0 0 0 0 0 0 0 0 0 0 0 0 0 0 0 0 0 0 0 0 0 0 0 0 0 0 0 0 0 0 0 0 0 0 0 0 0 0 0 0 0 0 0 0 0 "/>
</feComponentTransfer>
<feComposite operator="in" in2="shape" in="coloredNoise1" result="noise1Clipped" />
<feFlood flood-color="rgba(0, 0, 0, 0.25)" result="color1Flood" />
<feComposite operator="in" in2="noise1Clipped" in="color1Flood" result="color1" />
<feMerge result="effect1_noise_608_6">
<feMergeNode in="shape" />
<feMergeNode in="color1" />
</feMerge>
</filter>
<filter id="filter4_d_608_6" x="-351" y="102" width="1202" height="618" filterUnits="userSpaceOnUse" color-interpolation-filters="sRGB">
<feFlood flood-opacity="0" result="BackgroundImageFix"/>
<feColorMatrix in="SourceAlpha" type="matrix" values="0 0 0 0 0 0 0 0 0 0 0 0 0 0 0 0 0 0 127 0" result="hardAlpha"/>
<feOffset dy="-4"/>
<feGaussianBlur stdDeviation="90"/>
<feComposite in2="hardAlpha" operator="out"/>
<feColorMatrix type="matrix" values="0 0 0 0 0 0 0 0 0 0 0 0 0 0 0 0 0 0 0.25 0"/>
<feBlend mode="normal" in2="BackgroundImageFix" result="effect1_dropShadow_608_6"/>
<feBlend mode="normal" in="BackgroundImageFix" in2="effect1_dropShadow_608_6" result="BackgroundImageFix"/>
<feBlend mode="normal" in="SourceGraphic" in2="BackgroundImageFix" result="shape"/>
</filter>
<linearGradient id="paint0_linear_608_6" x1="250" y1="0" x2="260" y2="711" gradientUnits="userSpaceOnUse">
<stop stop-color="#B51D52"/>
<stop offset="1" stop-color="#4F0D24"/>
</linearGradient>
<linearGradient id="paint1_linear_608_6" x1="138.911" y1="95.7975" x2="355.671" y2="270.192" gradientUnits="userSpaceOnUse">
<stop stop-color="#22A6F1"/>
<stop offset="1" stop-color="#14608B"/>
</linearGradient>
<linearGradient id="paint2_linear_608_6" x1="177.368" y1="166.819" x2="181.37" y2="198.285" gradientUnits="userSpaceOnUse">
<stop stop-color="#22A6F1"/>
<stop offset="1" stop-color="#14608B"/>
</linearGradient>
<linearGradient id="paint3_linear_608_6" x1="184.466" y1="217.323" x2="188.467" y2="248.789" gradientUnits="userSpaceOnUse">
<stop stop-color="#22A6F1"/>
<stop offset="1" stop-color="#14608B"/>
</linearGradient>
<linearGradient id="paint4_linear_608_6" x1="191.565" y1="267.827" x2="195.567" y2="299.293" gradientUnits="userSpaceOnUse">
<stop stop-color="#22A6F1"/>
<stop offset="1" stop-color="#14608B"/>
</linearGradient>
<linearGradient id="paint5_linear_608_6" x1="111.569" y1="154.719" x2="429.277" y2="225.944" gradientUnits="userSpaceOnUse">
<stop stop-color="#E33A1E"/>
<stop offset="1" stop-color="#7D2011"/>
</linearGradient>
<linearGradient id="paint6_linear_608_6" x1="190" y1="149.066" x2="448.6" y2="199.811" gradientUnits="userSpaceOnUse">
<stop stop-color="#FCA104"/>
<stop offset="1" stop-color="#966002"/>
</linearGradient>
<linearGradient id="paint7_linear_608_6" x1="-36.5" y1="303.5" x2="543.99" y2="376.077" gradientUnits="userSpaceOnUse">
<stop stop-color="#FFA5C5"/>
<stop offset="1" stop-color="white"/>
</linearGradient>
<clipPath id="clip0_608_6">
<rect width="500" height="500" rx="70" fill="white"/>
</clipPath>
</defs>
</svg>
